<svg width="160" height="48" viewBox="0 0 160 48" fill="none" xmlns="http://www.w3.org/2000/svg">
  <path d="M25.3333 10H22.6667V38H25.3333V10Z" fill="white"/>
  <path d="M16 24C16 19.5817 19.5817 16 24 16H36C40.4183 16 44 19.5817 44 24C44 28.4183 40.4183 32 36 32H24C19.5817 32 16 28.4183 16 24Z" fill="white"/>
  <path d="M44 10H41.3333V38H44V10Z" fill="white"/>
  <path d="M8 10H5.33333V38H8V10Z" fill="white"/>
  <path d="M52.0455 16.6364H56.5V35H52.0455V16.6364ZM54.2727 13.6364C53.5303 13.6364 52.8939 13.3939 52.3636 12.9091C51.8333 12.4242 51.5682 11.8182 51.5682 11.0909C51.5682 10.3636 51.8333 9.75758 52.3636 9.27273C52.8939 8.78788 53.5303 8.54545 54.2727 8.54545C55.0152 8.54545 55.6515 8.78788 56.1818 9.27273C56.7121 9.75758 56.9773 10.3636 56.9773 11.0909C56.9773 11.8182 56.7121 12.4242 56.1818 12.9091C55.6515 13.3939 55.0152 13.6364 54.2727 13.6364Z" fill="white"/>
  <path d="M66.75 16.6364L66.8864 19.1364C67.9773 17.303 69.6288 16.3864 71.8409 16.3864C73.8258 16.3864 75.2955 16.9773 76.25 18.1591C77.2045 19.3409 77.697 21.0985 77.7273 23.4318V35H73.2727V23.5227C73.2727 22.303 72.9697 21.3864 72.3636 20.7727C71.7576 20.1591 70.8333 19.8523 69.5909 19.8523C67.9773 19.8523 66.7652 20.5606 65.9545 21.9773V35H61.5V16.6364H66.75Z" fill="white"/>
  <path d="M87.0909 35H82.6364V8.54545H87.0909V35Z" fill="white"/>
  <path d="M99.2614 35.2727C96.5114 35.2727 94.2689 34.4167 92.5341 32.7045C90.7992 30.9924 89.9318 28.7121 89.9318 25.8636V25.4091C89.9318 23.5 90.2765 21.8182 90.9659 20.3636C91.6553 18.9091 92.6477 17.7879 93.9432 17C95.2386 16.2121 96.7008 15.8182 98.3295 15.8182C100.902 15.8182 102.924 16.6439 104.398 18.2955C105.871 19.947 106.608 22.3182 106.608 25.4091V27.0909H94.4318C94.553 28.4773 95.0455 29.5833 95.9091 30.4091C96.7727 31.2348 97.8561 31.6477 99.1591 31.6477C101.159 31.6477 102.77 30.9167 103.989 29.4545L106.267 31.8864C105.47 32.9167 104.436 33.7197 103.165 34.2955C101.894 34.947 100.659 35.2727 99.2614 35.2727ZM98.3068 19.4659C97.2538 19.4659 96.4129 19.8333 95.7841 20.5682C95.1553 21.303 94.7614 22.3258 94.6023 23.6364H101.767V23.2955C101.705 22.0758 101.384 21.1326 100.807 20.4659C100.231 19.7992 99.3977 19.4659 98.3068 19.4659Z" fill="white"/>
  <path d="M121.193 31.0795C122.398 31.0795 123.381 30.7348 124.142 30.0455C124.903 29.3561 125.307 28.4697 125.352 27.3864H129.551C129.506 28.6591 129.119 29.8258 128.392 30.8864C127.665 31.947 126.682 32.7879 125.443 33.4091C124.204 34.0303 122.864 34.3409 121.423 34.3409C118.581 34.3409 116.335 33.4015 114.685 31.5227C113.034 29.6439 112.209 27.0682 112.209 23.7955V23.4091C112.209 20.3182 113.034 17.8258 114.685 15.9318C116.335 14.0379 118.581 13.0909 121.423 13.0909C123.855 13.0909 125.835 13.8258 127.364 15.2955C128.892 16.7652 129.693 18.7045 129.756 21.1136H125.352C125.307 19.8409 124.903 18.8182 124.142 18.0455C123.381 17.2727 122.398 16.8864 121.193 16.8864C119.71 16.8864 118.564 17.4242 117.756 18.5C116.947 19.5758 116.543 21.2197 116.543 23.4318V23.9318C116.543 26.1439 116.947 27.7879 117.756 28.8636C118.564 29.9394 119.71 31.0795 121.193 31.0795Z" fill="#FF8C94"/>
  <path d="M133.483 23.3636C133.483 20.2727 134.185 17.7879 135.591 15.9091C136.996 14.0303 138.864 13.0909 141.193 13.0909C143.017 13.0909 144.545 13.7727 145.773 15.1364V5H150.106V34.3409H146.136L145.977 32.3864C144.689 33.8258 143.068 34.5455 141.114 34.5455C138.864 34.5455 137.011 33.6061 135.568 31.7273C134.178 29.8485 133.483 27.2727 133.483 24V23.3636ZM137.818 24.2273C137.818 26.2879 138.182 27.8636 138.909 28.9545C139.636 30.0455 140.666 30.5909 142 30.5909C143.773 30.5909 145.045 29.8333 145.818 28.3182V19.5909C145.061 18.0909 143.803 17.3409 142.045 17.3409C140.697 17.3409 139.644 17.8939 138.909 19C138.182 20.1061 137.818 21.8106 137.818 24.2273Z" fill="#FF8C94"/>
  <path d="M152.989 23.3636C152.989 21.5 153.342 19.8333 154.048 18.3636C154.753 16.8939 155.759 15.7576 157.07 14.9545C158.38 14.1515 159.889 13.75 161.595 13.75C164.099 13.75 166.154 14.5455 157.776 17.2727C159.399 19 160.22 21.3258 160.22 24.25V24.5455C160.22 26.4091 159.874 28.0606 159.184 29.5C158.494 30.9394 157.5 32.0682 156.195 32.8864C154.891 33.7045 153.367 34.1136 151.625 34.1136C149.098 34.1136 147.037 33.3258 145.445 31.75C143.853 30.1742 143.057 28 143.057 25.2273V24.9091C143.057 22.9697 143.396 21.303 144.075 19.9091C144.764 18.5152 145.743 17.4318 147.011 16.6591C148.279 15.8864 149.753 15.5 151.427 15.5C154.026 15.5 156.081 16.3106 157.592 17.9318C159.103 19.553 159.923 21.7576 160.057 24.5455H151.875C151.875 22.9242 151.818 21.9394 151.705 21.5909C151.591 21.2424 150.945 20.5152 149.767 20.5152C148.19 20.5152 147.402 21.5 147.402 23.4697C147.402 24.803 147.592 25.803 147.973 26.4697C148.353 27.1364 148.894 27.4697 149.597 27.4697C150.719 27.4697 152.037 27.8939 152.989 28.5682V23.3636Z" fill="#FF8C94"/>
</svg> 